#!OML:ASF E:\Style4\Style4.ASF
:FULLY-SPECIFIED
:DEGREES
4013
root -2.37786 17.1672 -1.87143 10.0354 23.0666 -1.84621
lowerback 17.296 3.44267 -0.418823
upperback 10.9604 4.60179 -2.28139
thorax 2.23427 2.44405 -2.84688
lowerneck 3.16309 -8.82126 -5.56258
upperneck -12.5627 -10.472 18.1909
head -2.86678 -5.89978 6.75282
rclavicle 1.61016e-014 -2.72335e-014
rhumerus 59.0935 14.8461 5.46618
rradius 74.1037
rwrist -88.1403
rhand -1.19291 9.16532
rfingers 7.12502
rthumb 24.4473 -19.2947
lclavicle 1.61016e-014 -2.72335e-014
lhumerus 51.4617 -21.7618 24.8263
lradius 81.0161
lwrist 82.3119
lhand -0.737237 26.6432
lfingers 7.12502
lthumb 24.884 55.0435
rfemur -37.6924 -16.2308 33.4233
rtibia 46.1201
rfoot -24.6121 -21.4711
rtoes -3.57327
lfemur -41.8533 -7.94569 -5.36015
ltibia 40.7036
lfoot -10.289 -3.15355
ltoes -23.3291
4014
root -2.35964 17.1689 -1.86712 10.1007 23.3487 -1.63585
lowerback 17.2889 3.50855 -0.350861
upperback 10.9841 4.70019 -2.1826
thorax 2.26469 2.49484 -2.79338
lowerneck 3.50616 -9.0789 -5.53857
upperneck -12.8889 -10.8054 18.0717
head -2.99023 -6.08737 6.7443
rclavicle 5.76476e-015 1.39149e-015
rhumerus 59.3349 14.8769 5.12514
rradius 74.0602
rwrist -88.0867
rhand -1.47099 9.27974
rfingers 7.12502
rthumb 24.1807 -19.216
lclavicle 5.76476e-015 1.39149e-015
lhumerus 51.3866 -21.4616 24.2851
lradius 80.9643
lwrist 82.2929
lhand -0.622588 26.8282
lfingers 7.12502
lthumb 24.9939 55.2133
rfemur -37.7319 -16.4607 33.1689
rtibia 46.259
rfoot -24.7515 -21.524
rtoes -3.41954
lfemur -41.8588 -8.0138 -5.6747
ltibia 40.5967
lfoot -10.1672 -3.39786
ltoes -23.2282
4015
root -2.33878 17.1697 -1.86443 10.1829 23.6164 -1.41171
lowerback 17.2564 3.596 -0.229775
upperback 11.0232 4.83519 -2.12369
thorax 2.33526 2.56895 -2.81411
lowerneck 3.76104 -9.35452 -5.25608
upperneck -13.2228 -11.1583 17.7593
head -3.12988 -6.2819 6.63279
rclavicle 4.56211e-014 -6.2816e-014
rhumerus 59.4166 14.9013 4.80355
rradius 74.0755
rwrist -88.2402
rhand -1.67024 9.59359
rfingers 7.12502
rthumb 23.9896 -18.9274
lclavicle 4.56211e-014 -6.2816e-014
lhumerus 51.4149 -21.1566 23.6287
lradius 81.081
lwrist 82.5257
lhand -0.601421 27.3158
lfingers 7.12502
lthumb 25.0142 55.698
rfemur -37.7811 -16.6617 32.885
rtibia 46.3904
rfoot -24.897 -21.5637
rtoes -3.19672
lfemur -41.8609 -8.12683 -5.97878
ltibia 40.4948
lfoot -10.1172 -3.62515
ltoes -22.8757
4016
root -2.3162 17.1713 -1.86259 10.2518 23.8919 -1.23565
lowerback 17.1596 3.68034 -0.0342481
upperback 11.1065 4.97906 -2.04842
thorax 2.49274 2.65224 -2.85317
lowerneck 3.81593 -9.60531 -5.14433
upperneck -13.3661 -11.4905 17.6507
head -3.15761 -6.454 6.58966
rclavicle 8.53283e-014 -7.55382e-014
rhumerus 59.5025 14.891 4.4784
rradius 74.0123
rwrist -88.4353
rhand -1.85674 9.81734
rfingers 7.12502
rthumb 23.8108 -18.7271
lclavicle 8.53283e-014 -7.55382e-014
lhumerus 51.4541 -20.7986 22.958
lradius 81.3497
lwrist 82.958
lhand -0.980648 27.7304
lfingers 7.12502
lthumb 24.6508 56.1627
rfemur -37.8454 -16.918 32.6571
rtibia 46.5211
rfoot -25.0285 -21.5404
rtoes -2.9427
lfemur -41.8654 -8.25876 -6.23739
ltibia 40.3926
lfoot -10.076 -3.80935
ltoes -22.5309
4017
root -2.2941 17.1765 -1.85778 10.2906 24.1413 -1.07713
lowerback 17.0194 3.73719 0.0373307
upperback 11.2352 5.07212 -1.90233
thorax 2.70171 2.70149 -2.73584
lowerneck 3.8323 -9.80425 -5.19647
upperneck -13.4514 -11.7655 17.6117
head -3.15262 -6.59051 6.58817
rclavicle 4.56118e-015 1.73502e-014
rhumerus 59.8096 14.7943 4.21367
rradius 73.9447
rwrist -88.5576
rhand -2.00663 9.92941
rfingers 7.12502
rthumb 23.667 -18.6337
lclavicle 4.56118e-015 1.73502e-014
lhumerus 51.3273 -20.3674 22.3175
lradius 81.51
lwrist 83.0882
lhand -1.20625 27.8803
lfingers 7.12502
lthumb 24.4345 56.342
rfemur -37.8587 -17.1861 32.4446
rtibia 46.6312
rfoot -25.1166 -21.5416
rtoes -2.97787
lfemur -41.8192 -8.36265 -6.49798
ltibia 40.2847
lfoot -9.90929 -4.0275
ltoes -21.7447
4018
root -2.27231 17.1819 -1.85497 10.3602 24.3484 -0.904276
lowerback 16.9614 3.79231 0.102801
upperback 11.2818 5.15625 -1.77305
thorax 2.77909 2.74412 -2.64117
lowerneck 3.9214 -9.99593 -5.30581
upperneck -13.4946 -12.0428 17.5593
head -3.14433 -6.72598 6.59362
rclavicle -4.34841e-014 2.44008e-014
rhumerus 60.1172 14.7902 3.92885
rradius 73.9712
rwrist -88.6003
rhand -2.51985 9.9127
rfingers 7.12502
rthumb 23.1747 -18.7132
lclavicle -4.34841e-014 2.44008e-014
lhumerus 51.1426 -20.0405 21.6423
lradius 81.5096
lwrist 83.0497
lhand -1.00836 27.9489
lfingers 7.12502
lthumb 24.6242 56.3849
rfemur -37.8801 -17.3873 32.2111
rtibia 46.7176
rfoot -25.1707 -21.5351
rtoes -2.92366
lfemur -41.7888 -8.44584 -6.76258
ltibia 40.1743
lfoot -9.74489 -4.21644
ltoes -20.9882
4019
root -2.2502 17.1877 -1.85474 10.4419 24.5155 -0.720091
lowerback 16.9586 3.89122 0.235994
upperback 11.3076 5.30445 -1.69575
thorax 2.8207 2.82437 -2.65229
lowerneck 3.96947 -10.2345 -5.29831
upperneck -13.5337 -12.3757 17.4852
head -3.13137 -6.89154 6.57102
rclavicle -6.55989e-015 3.6477e-014
rhumerus 60.2045 14.8071 3.52483
rradius 73.9764
rwrist -88.4969
rhand -2.96899 10.0348
rfingers 7.12502
rthumb 22.7437 -18.6446
lclavicle -6.55989e-015 3.6477e-014
lhumerus 51.1429 -19.747 20.8641
lradius 81.5131
lwrist 83.1498
lhand -0.650356 27.9541
lfingers 7.12502
lthumb 24.9673 56.3429
rfemur -37.9021 -17.5149 31.9512
rtibia 46.7797
rfoot -25.2154 -21.55
rtoes -2.83518
lfemur -41.7579 -8.49426 -7.05143
ltibia 40.0524
lfoot -9.63429 -4.33787
ltoes -20.8847
4020
root -2.22411 17.1913 -1.85442 10.4994 24.6964 -0.60858
lowerback 16.9061 4.01486 0.532409
upperback 11.3733 5.50827 -1.62717
thorax 2.9519 2.94373 -2.76396
lowerneck 3.87237 -10.4961 -5.31302
upperneck -13.5112 -12.7288 17.5805
head -3.05865 -7.06782 6.58901
rclavicle -7.31528e-014 8.92543e-014
rhumerus 60.1223 14.7553 3.08427
rradius 73.9513
rwrist -88.5427
rhand -3.05802 10.1392
rfingers 7.12502
rthumb 22.6583 -18.5507
lclavicle -7.31528e-014 8.92543e-014
lhumerus 51.3774 -19.4481 19.9881
lradius 81.4739
lwrist 83.3139
lhand -0.441003 27.5917
lfingers 7.12502
lthumb 25.1679 55.9524
rfemur -37.9234 -17.6611 31.7553
rtibia 46.8303
rfoot -24.9852 -21.8707
rtoes -4.25117
lfemur -41.7365 -8.55321 -7.27268
ltibia 39.9299
lfoot -9.56148 -4.45505
ltoes -20.6583
4021
root -2.19767 17.1966 -1.85312 10.5522 24.8964 -0.472409
lowerback 16.816 4.08846 0.715439
upperback 11.4489 5.63212 -1.50723
thorax 3.09293 3.01479 -2.74409
lowerneck 3.65704 -10.6717 -5.54704
upperneck -13.2894 -12.9959 17.7413
head -2.89514 -7.18356 6.64061
rclavicle -1.13904e-013 7.95139e-015
rhumerus 60.2627 14.7208 2.75221
rradius 73.9717
rwrist -88.7343
rhand -2.87672 10.0664
rfingers 7.12502
rthumb 22.8323 -18.6022
lclavicle -1.13904e-013 7.95139e-015
lhumerus 51.3624 -19.1182 19.2048
lradius 81.3755
lwrist 83.4306
lhand -0.355316 27.2506
lfingers 7.12502
lthumb 25.25 55.5998
rfemur -37.9308 -17.8682 31.5431
rtibia 46.8865
rfoot -24.6393 -22.2624
rtoes -6.42007
lfemur -41.6964 -8.63321 -7.52384
ltibia 39.7904
lfoot -9.44007 -4.64888
ltoes -20.0621
4022
root -2.17206 17.2036 -1.85366 10.6222 25.0467 -0.365305
lowerback 16.7559 4.14659 0.842592
upperback 11.4758 5.72503 -1.36027
thorax 3.15472 3.06396 -2.66561
lowerneck 3.56828 -10.8411 -5.68603
upperneck -13.1578 -13.2593 17.6892
head -2.80393 -7.29848 6.62687
rclavicle 3.20043e-014 2.78299e-015
rhumerus 60.5495 14.759 2.48098
rradius 74.0325
rwrist -88.8075
rhand -2.93092 10.1968
rfingers 7.12502
rthumb 22.7803 -18.4781
lclavicle 3.20043e-014 2.78299e-015
lhumerus 51.1366 -18.8134 18.4551
lradius 81.5075
lwrist 83.5067
lhand -0.394611 27.4133
lfingers 7.12502
lthumb 25.2124 55.7678
rfemur -37.9567 -18.0351 31.3735
rtibia 46.9402
rfoot -24.8321 -22.0908
rtoes -5.77743
lfemur -41.6695 -8.65302 -7.75268
ltibia 39.6482
lfoot -9.29761 -4.79193
ltoes -20.0099
4023
root -2.14444 17.2111 -1.85363 10.7293 25.1473 -0.174205
lowerback 16.7631 4.19116 0.888735
upperback 11.4385 5.78717 -1.25381
thorax 3.1058 3.09243 -2.59002
lowerneck 3.69919 -11.0313 -5.65517
upperneck -13.2043 -13.544 17.4074
head -2.83193 -7.43374 6.54399
rclavicle -1.82882e-014 7.07673e-014
rhumerus 60.9197 14.9168 2.13815
rradius 74.0427
rwrist -88.7256
rhand -2.9147 10.4168
rfingers 7.12502
rthumb 22.7958 -18.2563
lclavicle -1.82882e-014 7.07673e-014
lhumerus 50.8251 -18.5625 17.5747
lradius 81.8509
lwrist 83.7611
lhand -0.471868 27.7134
lfingers 7.12502
lthumb 25.1383 56.0783
rfemur -37.9804 -18.173 31.1012
rtibia 46.995
rfoot -25.3934 -21.493
rtoes -2.62379
lfemur -41.6135 -8.71594 -8.05672
ltibia 39.493
lfoot -9.2774 -4.81109
ltoes -20.1238
4024
root -2.11492 17.2187 -1.85319 10.7688 25.2436 0.0305887
lowerback 16.8257 4.22201 0.917505
upperback 11.3959 5.82895 -1.13105
thorax 3.01772 3.10875 -2.4903
lowerneck 3.91495 -11.1684 -5.64321
upperneck -13.2326 -13.7644 17.0824
head -2.87926 -7.53579 6.45826
rclavicle 6.48038e-014 -5.84427e-014
rhumerus 61.3664 15.1356 1.82626
rradius 74.0336
rwrist -88.6857
rhand -3.00902 10.577
rfingers 7.12502
rthumb 22.7053 -18.1072
lclavicle 6.48038e-014 -5.84427e-014
lhumerus 50.3687 -18.3576 16.7731
lradius 82.1717
lwrist 84.0333
lhand -0.161199 27.7396
lfingers 7.12502
lthumb 25.436 56.0624
rfemur -37.9127 -18.3182 30.7661
rtibia 47.0437
rfoot -25.6899 -21.1426
rtoes -0.795337
lfemur -41.4561 -8.76121 -8.40577
ltibia 39.3406
lfoot -9.23897 -4.89125
ltoes -20.2138
4025
root -2.08495 17.227 -1.85305 10.8025 25.3286 0.206662
lowerback 16.7965 4.25195 0.959283
upperback 11.4296 5.87388 -0.973992
thorax 3.05776 3.12844 -2.35041
lowerneck 3.83629 -11.2618 -5.8071
upperneck -13.0501 -13.9441 16.874
head -2.79639 -7.59886 6.40099
rclavicle -8.26944e-014 1.35174e-014
rhumerus 61.7724 15.2151 1.56174
rradius 74.0779
rwrist -88.7606
rhand -3.07763 10.5232
rfingers 7.12502
rthumb 22.6395 -18.169
lclavicle -8.26944e-014 1.35174e-014
lhumerus 49.8831 -18.0743 16.1442
lradius 82.2937
lwrist 84.1671
lhand 0.587448 27.789
lfingers 7.12502
lthumb 26.1529 56.0077
rfemur -37.8413 -18.4196 30.4579
rtibia 47.0933
rfoot -25.5564 -21.3833
rtoes -2.07369
lfemur -41.3 -8.79758 -8.7206
ltibia 39.1955
lfoot -9.13851 -5.00648
ltoes -19.931
